<?xml version="1.0" encoding="UTF-8" standalone="no"?>
<svg
   viewBox="0 0 32 32"
   version="1.1"
   id="svg3627"
   sodipodi:docname="lights.svg"
   inkscape:version="1.1 (c68e22c387, 2021-05-23)"
   xmlns:inkscape="http://www.inkscape.org/namespaces/inkscape"
   xmlns:sodipodi="http://sodipodi.sourceforge.net/DTD/sodipodi-0.dtd"
   xmlns="http://www.w3.org/2000/svg"
   xmlns:svg="http://www.w3.org/2000/svg">
  <defs
     id="defs3631">
    <linearGradient
       id="linearGradient3515"
       inkscape:swatch="solid">
      <stop
         style="stop-color:#ffffff;stop-opacity:1;"
         offset="0"
         id="stop3513" />
    </linearGradient>
  </defs>
  <sodipodi:namedview
     id="namedview3629"
     pagecolor="#ffffff"
     bordercolor="#666666"
     borderopacity="1.0"
     inkscape:pageshadow="2"
     inkscape:pageopacity="0.0"
     inkscape:pagecheckerboard="0"
     showgrid="false"
     units="mm"
     inkscape:zoom="9.6453785"
     inkscape:cx="31.6732"
     inkscape:cy="17.0548"
     inkscape:window-width="1920"
     inkscape:window-height="1009"
     inkscape:window-x="-8"
     inkscape:window-y="-8"
     inkscape:window-maximized="1"
     inkscape:current-layer="svg3627"
     showguides="true"
     inkscape:guide-bbox="true">
    <sodipodi:guide
       position="34.016036,5.1683851"
       orientation="0,-1"
       id="guide9225" />
  </sodipodi:namedview>
  <path
     style="stroke-width:0.0741839"
     d="m 15.663994,31.824026 c -0.334701,-0.186668 -0.540004,-0.451983 -0.770973,-0.996328 -0.201,-0.473716 -0.313854,-0.568355 -0.960448,-0.80543 -0.481233,-0.176446 -0.941187,-0.484003 -1.186612,-0.793455 l -0.132656,-0.167261 h 3.532391 3.532392 l -0.132935,0.191803 c -0.233149,0.336394 -0.569788,0.614425 -0.96426,0.796381 -0.489909,0.22598 -0.698835,0.435221 -0.859609,0.860896 -0.345563,0.914939 -1.297066,1.337387 -2.05729,0.913394 z M 7.5498397,31.261369 C 7.3162461,31.100491 7.0204937,30.671357 6.9218288,30.350141 6.8654665,30.166646 6.7823238,30.089178 6.5609973,30.013917 5.8527728,29.773099 5.1143584,28.912459 5.1143584,28.327828 v -0.18681 l 1.3404683,0.03304 c 0.7372558,0.01816 2.0608453,0.05637 2.9413149,0.08487 l 1.6008564,0.05182 0.04669,0.371419 c 0.02568,0.204282 0.06467,0.404444 0.08666,0.444806 0.06224,0.114318 -0.617611,0.791746 -0.963432,0.959984 -0.2240543,0.108998 -0.3486003,0.234876 -0.4471463,0.451919 -0.07513,0.165461 -0.2508292,0.42531 -0.390449,0.577443 l -0.2538502,0.27662 H 8.4081756 c -0.4995923,0 -0.7153027,-0.03306 -0.8583359,-0.131576 z m 14.6923953,-0.15806 c -0.236035,-0.162981 -0.529317,-0.591517 -0.630687,-0.921546 -0.05981,-0.194691 -0.135529,-0.266818 -0.348459,-0.33189 -0.14963,-0.04573 -0.272053,-0.113024 -0.272053,-0.149549 0,-0.03652 0.101843,-0.25844 0.226313,-0.493145 0.124471,-0.234704 0.28463,-0.57365 0.355907,-0.753212 0.107995,-0.272059 0.171835,-0.335518 0.382991,-0.380705 0.326448,-0.06986 4.327014,0.04134 4.327014,0.120267 0,0.132725 -0.578294,1.030854 -0.816755,1.268477 -0.140313,0.139817 -0.421307,0.33763 -0.624427,0.439581 -0.203125,0.10195 -0.369317,0.233824 -0.369317,0.29305 0,0.156931 -0.385847,0.736232 -0.592952,0.890243 -0.255251,0.189813 -1.371182,0.202373 -1.637575,0.01843 z M 6.4722341,26.534747 4.8010049,26.493073 4.8273009,25.023225 4.8535969,23.553377 4.3134682,22.573289 C 4.0163987,22.034239 3.4241497,21.024182 2.997358,20.328716 2.0313934,18.754644 1.9067541,18.535028 1.648763,17.952444 0.74300631,15.907087 0.62600904,13.511161 1.3234816,11.291109 1.8705477,9.5498071 2.8786518,8.0899909 4.2773014,7.0137329 4.69335,6.6935833 5.3915056,6.2728961 5.4314737,6.3182599 c 0.01361,0.015415 -0.068154,0.333774 -0.1816448,0.7074581 -0.4127936,1.35919 -0.5106614,2.0835919 -0.5106614,3.779859 0,1.28733 0.024667,1.667496 0.1499487,2.308762 0.3949593,2.022002 1.1409889,3.671245 2.6116289,5.773502 0.7732376,1.105334 1.6957983,2.509851 2.4063396,3.663441 l 0.6388033,1.037109 v 1.511614 1.511612 l -1.2011975,-0.0176 c -0.6606583,-0.0096 -1.9532521,-0.03635 -2.8724256,-0.05927 z M 11.868908,24.847604 V 23.162622 L 11.188007,22.022275 C 10.469467,20.818901 9.5971316,19.477878 8.5954804,18.036841 7.4377977,16.37133 6.8582737,15.25541 6.4748416,13.953406 5.7443118,11.472777 5.9150417,8.6917535 6.9422093,6.3403702 7.7159314,4.569173 8.9956062,2.9653997 10.517874,1.8591057 c 0.95716,-0.6956075 2.391739,-1.33315349 3.718614,-1.65260214 1.071522,-0.25797192 3.05003,-0.26167751 4.159113,-0.007792 3.051626,0.69857096 5.572541,2.69473764 7.072233,5.60009434 1.392229,2.6971661 1.527438,6.4579351 0.332021,9.2348841 -0.412574,0.958402 -0.905607,1.802388 -1.846699,3.161208 -1.06195,1.533325 -1.934656,2.87966 -2.624086,4.048211 l -0.616572,1.045067 v 1.622204 1.622207 h -4.421793 -4.421797 z m 10.950036,1.546955 -0.78339,-0.0252 V 25.040317 23.71128 l 0.749138,-1.217097 c 0.794765,-1.291232 1.24809,-1.980795 2.306835,-3.508976 2.14677,-3.098633 2.819923,-5.052408 2.818202,-8.179626 C 27.908892,9.265577 27.802573,8.4073778 27.465145,7.216523 27.354317,6.8253889 27.270237,6.4980804 27.278301,6.4891705 c 0.06033,-0.066653 1.101207,0.8458326 1.588206,1.3922936 1.666655,1.8701492 2.440795,4.2768399 2.224439,6.9154629 -0.142491,1.737797 -0.645933,3.097445 -1.76342,4.762474 -1.137885,1.695425 -1.761085,2.658633 -2.195963,3.394042 l -0.430494,0.727997 v 1.139092 c 0,0.6265 -0.01958,1.250226 -0.04351,1.386059 l -0.04351,0.24697 -1.505847,-0.01689 c -0.828216,-0.0093 -1.858372,-0.02824 -2.289235,-0.04211 z"
     id="path10321" />
</svg>
